<?xml version="1.0" standalone="no"?>
<!DOCTYPE svg PUBLIC "-//W3C//DTD SVG 20010904//EN"
 "http://www.w3.org/TR/2001/REC-SVG-20010904/DTD/svg10.dtd">
<svg version="1.0" xmlns="http://www.w3.org/2000/svg"
 width="770.000000pt" height="770.000000pt" viewBox="0 0 770.000000 770.000000"
 preserveAspectRatio="xMidYMid meet">
<metadata>
Created by potrace 1.14, written by Peter Selinger 2001-2017
</metadata>
<g transform="translate(0.000000,770.000000) scale(0.100000,-0.100000)"
fill="#000000" stroke="none">
<path d="M3608 7695 c-2 -2 -43 -6 -92 -10 -49 -3 -92 -7 -95 -9 -3 -2 -33 -7
-66 -11 -78 -8 -126 -15 -145 -20 -8 -2 -28 -7 -45 -10 -47 -8 -64 -11 -160
-35 -49 -12 -99 -23 -110 -26 -40 -8 -265 -83 -356 -119 -113 -44 -349 -158
-439 -212 -36 -21 -87 -52 -114 -68 -52 -32 -268 -191 -326 -240 -46 -39 -267
-260 -305 -305 -17 -19 -46 -55 -65 -80 -19 -25 -38 -46 -42 -48 -5 -2 -8 -10
-8 -18 0 -8 -4 -14 -10 -14 -5 0 -10 -5 -10 -10 0 -6 -8 -20 -18 -31 -11 -10
-25 -32 -33 -47 -8 -15 -17 -29 -20 -32 -24 -21 -153 -270 -193 -375 -15 -38
-31 -79 -36 -90 -11 -25 -29 -85 -35 -114 -2 -11 -6 -25 -9 -29 -6 -9 -8 -18
-35 -152 -29 -146 -35 -211 -35 -385 0 -151 3 -199 19 -270 4 -16 8 -39 10
-50 7 -53 85 -326 105 -370 5 -11 22 -58 39 -105 34 -99 85 -224 133 -330 19
-41 41 -91 49 -110 17 -43 282 -571 329 -655 18 -33 48 -89 68 -125 19 -36 44
-81 55 -100 11 -19 31 -55 45 -80 13 -25 28 -49 32 -55 4 -5 19 -30 32 -55 42
-76 63 -111 128 -220 34 -58 70 -118 80 -135 29 -51 173 -283 258 -418 45 -71
82 -130 82 -132 0 -2 32 -51 70 -109 39 -58 70 -108 70 -111 0 -3 5 -11 10
-18 6 -7 111 -163 233 -347 122 -184 267 -400 322 -479 55 -79 107 -153 115
-166 29 -44 135 -196 152 -218 33 -43 232 -323 261 -367 39 -59 123 -126 189
-152 59 -23 233 -33 256 -16 6 6 12 8 12 4 0 -3 22 3 49 13 63 24 141 84 175
136 15 22 49 69 76 105 28 36 53 71 57 79 3 8 13 22 21 30 8 9 50 68 94 131
210 299 324 464 338 486 21 33 213 317 223 329 9 11 225 340 242 367 5 9 64
102 131 205 116 181 231 363 265 421 9 15 46 75 83 135 36 59 66 112 66 117 0
6 3 10 8 10 4 0 12 10 18 23 9 18 99 172 165 282 10 17 30 52 44 79 43 80 50
91 55 96 3 3 17 28 32 55 14 28 59 111 99 185 41 75 90 167 109 205 19 39 38
72 43 73 4 2 7 12 7 23 0 10 5 19 10 19 6 0 10 9 10 20 0 11 4 20 10 20 5 0 9
3 8 8 -1 4 28 68 64 142 70 143 128 269 128 275 0 3 11 28 25 57 31 68 119
291 134 343 7 22 16 49 21 60 13 30 68 215 74 250 3 17 9 46 15 65 9 34 12 49
28 155 16 101 9 376 -12 490 -30 164 -31 167 -55 250 -12 39 -23 77 -25 85
-31 118 -223 505 -292 585 -4 6 -32 43 -62 83 -76 104 -101 131 -241 273 -178
179 -396 346 -610 468 -51 29 -299 153 -345 172 -11 5 -46 20 -79 34 -32 14
-66 25 -75 25 -9 0 -21 4 -26 9 -6 5 -64 25 -130 45 -66 20 -135 41 -153 47
-19 6 -44 13 -55 15 -12 2 -40 7 -62 13 -51 12 -143 30 -175 35 -14 3 -45 8
-70 12 -67 11 -70 11 -140 18 -36 4 -81 9 -100 12 -39 6 -566 15 -572 9z m552
-638 c19 -4 55 -9 80 -13 104 -15 143 -22 190 -34 19 -5 49 -12 65 -15 17 -3
35 -7 40 -9 6 -1 30 -8 55 -15 25 -7 69 -21 98 -32 28 -10 52 -16 52 -13 0 4
6 2 13 -4 6 -6 14 -10 17 -10 3 -1 18 -5 33 -11 16 -6 30 -11 32 -11 25 0 354
-168 388 -198 9 -8 17 -12 17 -8 0 6 11 -2 45 -31 7 -7 17 -13 22 -13 4 0 19
-9 33 -20 152 -120 200 -161 267 -227 111 -110 192 -208 258 -312 6 -9 22 -34
36 -56 61 -95 150 -290 174 -385 2 -8 11 -40 19 -70 30 -114 48 -253 48 -370
0 -76 -26 -272 -39 -293 -2 -4 -6 -20 -9 -35 -5 -26 -29 -111 -41 -142 -4 -8
-7 -17 -8 -20 -1 -3 -7 -18 -13 -33 -7 -16 -12 -33 -12 -38 0 -6 -25 -72 -56
-147 -58 -142 -70 -168 -141 -320 -23 -52 -43 -98 -43 -103 0 -5 -4 -9 -10 -9
-5 0 -9 -3 -8 -7 2 -8 -122 -263 -132 -273 -3 -3 -14 -24 -25 -47 -11 -24 -23
-43 -26 -43 -4 0 -10 -11 -13 -25 -3 -13 -20 -48 -36 -76 -17 -28 -49 -85 -72
-127 -59 -111 -62 -116 -68 -122 -3 -3 -11 -16 -18 -30 -6 -14 -28 -52 -47
-85 -20 -33 -39 -67 -42 -75 -4 -8 -10 -17 -13 -20 -4 -3 -18 -25 -31 -50 -13
-25 -85 -145 -159 -268 -74 -122 -140 -231 -145 -241 -6 -10 -22 -36 -36 -57
-14 -22 -93 -145 -174 -274 -82 -129 -153 -236 -157 -238 -4 -2 -8 -10 -8 -17
0 -8 -6 -20 -13 -27 -7 -7 -31 -40 -52 -73 -21 -33 -95 -145 -164 -248 -69
-104 -133 -199 -141 -212 -45 -70 -115 -170 -122 -173 -4 -2 -8 -10 -8 -18 0
-8 -4 -14 -10 -14 -5 0 -10 -7 -10 -15 0 -8 -4 -15 -10 -15 -5 0 -10 -6 -10
-14 0 -8 -3 -16 -7 -18 -5 -1 -21 -23 -38 -48 -32 -48 -43 -63 -62 -85 -7 -7
-13 -16 -13 -20 0 -3 -12 -22 -26 -40 l-26 -34 -53 77 c-29 42 -107 156 -172
252 -65 96 -120 177 -123 180 -6 5 -37 51 -55 82 -5 9 -29 44 -52 78 -24 34
-43 66 -43 70 0 5 -3 10 -7 12 -11 4 -183 266 -183 277 0 5 -3 11 -8 13 -4 2
-25 30 -46 63 -21 33 -51 79 -67 102 -16 23 -29 44 -29 47 0 4 -15 28 -32 54
-18 26 -37 56 -43 65 -5 9 -40 64 -77 122 -38 58 -68 110 -68 116 0 5 -3 9 -8
9 -4 0 -16 17 -27 38 -11 20 -26 43 -32 50 -7 7 -13 20 -13 28 0 8 -4 14 -10
14 -5 0 -10 4 -10 9 0 6 -13 30 -30 54 -16 25 -30 50 -30 56 0 6 -4 11 -10 11
-5 0 -10 5 -10 10 0 6 -18 39 -40 74 -22 35 -40 68 -40 75 0 6 -4 11 -10 11
-5 0 -10 5 -10 11 0 6 -8 23 -19 37 -10 15 -29 45 -41 67 -12 22 -58 101 -101
176 -44 74 -79 141 -79 147 0 7 -3 12 -7 12 -5 0 -13 10 -18 23 -26 55 -81
153 -92 165 -7 7 -13 22 -13 32 0 10 -4 20 -8 22 -13 5 -221 415 -222 436 0 6
-4 12 -10 12 -5 0 -10 8 -10 18 0 10 -4 22 -9 28 -20 21 -156 344 -215 512
-49 138 -102 357 -105 432 -3 69 -1 183 3 220 3 25 7 61 10 80 15 143 98 389
179 534 57 102 60 108 82 141 133 201 367 432 570 562 27 18 59 39 70 48 10 8
23 15 29 15 5 0 17 6 25 14 36 31 381 194 381 179 0 -3 6 -1 13 4 12 10 68 30
103 37 10 3 33 9 49 16 32 12 222 59 265 65 14 2 41 6 60 10 74 13 87 15 155
20 38 3 71 8 73 10 6 6 492 -2 532 -8z"/>
<path d="M2806 6231 c-1 -3 -2 -586 -2 -1296 l1 -1290 268 -1 c193 -1 267 1
268 10 1 6 2 259 3 561 l1 550 498 2 c273 1 498 -1 498 -5 1 -4 2 -257 3 -562
l1 -555 263 -1 c182 -1 265 2 270 10 3 6 7 588 7 1294 0 1131 -2 1283 -15
1286 -8 3 -130 4 -270 4 l-256 0 0 -506 0 -507 -499 0 -500 0 0 506 0 506
-268 0 c-147 0 -269 -3 -271 -6z"/>
</g>
</svg>
